<?xml version="1.0" encoding="UTF-8"?><svg xmlns="http://www.w3.org/2000/svg" viewBox="0 0 498.13 108.48"><defs><style>.cls-1{fill:#fff;}</style></defs><g id="Layer_1"><g><path class="cls-1" d="M476.7,106.14h-19.65c-3.87-11.87-7.53-23.78-10.97-35.79-3.51,12.03-7.35,23.91-11.2,35.79h-20.01c-7.16-22.24-14.33-44.51-21.51-66.78,1.02-.32,18.41-.45,21.5-.17,3.94,12.96,8.02,25.94,11.61,39.4,2.02-6.82,3.9-13.37,5.9-19.87,2-6.51,4.11-12.98,6.19-19.53h15.94c4.11,12.97,8.3,25.95,11.78,39.39,3.95-13.31,7.82-26.37,11.69-39.41h20.14c-7.16,22.39-14.29,44.67-21.43,66.97Z"/><path class="cls-1" d="M355.34,37.33c12.1,.3,21.6,4.26,28.93,12.83,4.93,5.76,7.56,12.5,8.08,20.06,.57,8.16-1.26,15.74-5.89,22.51-5.63,8.25-13.49,13.21-23.28,15.04-7.49,1.4-14.84,.72-21.82-2.38-12-5.33-19.3-14.47-21.14-27.53-1.54-10.86,1.32-20.58,8.75-28.78,5.34-5.89,12.05-9.47,19.84-10.97,2.45-.47,4.96-.62,6.54-.8Zm16.17,35.1c.06-2.01-.35-4.48-1.41-6.79-2.68-5.84-7.19-9.21-13.68-9.28-6.62-.07-11.44,3.12-14.15,9.16-2.13,4.75-2.11,9.68-.13,14.49,4.23,10.26,17.59,12.73,25.05,4.66,3.04-3.29,4.32-7.27,4.32-12.23Z"/><path class="cls-1" d="M250.31,3.83h21.57V106.12h-21.57V3.83Z"/><path class="cls-1" d="M309.31,106.15h-21.42c-.28-.93-.38-100.35-.1-102.27h21.43c.24,.92,.35,99.87,.09,102.27Z"/><path class="cls-1" d="M212.48,39.17h21.59V106.11h-21.48c-.27-.94-.39-64.42-.11-66.94Z"/><path class="cls-1" d="M223.25,5.63c6.08-.07,12.33,4.73,12.38,12.31,.04,6.76-5.64,12.23-12.47,12.22-6.79-.01-12.32-5.59-12.29-12.38,.04-6.7,5.6-12.15,12.38-12.14Z"/><path class="cls-1" d="M371.51,72.42c0,4.96-1.28,8.95-4.32,12.23-7.46,8.07-20.83,5.6-25.05-4.66-1.98-4.81-2-9.73,.13-14.49,2.71-6.04,7.54-9.23,14.15-9.16,6.49,.07,11,3.45,13.68,9.28,1.06,2.31,1.47,4.77,1.41,6.79Z"/></g></g><g id="Layer_3"><polygon class="cls-1" points=".24 39.01 31.18 39.01 49.35 62.45 67.55 39.01 98.33 39.01 63.27 79.38 63.27 108.48 35.35 108.48 35.35 79.38 .24 39.01"/><g><polygon class="cls-1" points="63.27 79.38 63.27 108.36 98.33 108.48 98.33 39.01 98.33 39.01 63.27 79.38"/><polygon class="cls-1" points=".32 39.1 0 108.16 35.35 108.27 35.35 79.38 .32 39.1"/><polygon class="cls-1" points="49.35 62.45 67.55 39.01 98.33 39.01 50.11 0 .32 38.7 .32 39.01 31.18 39.01 49.35 62.45"/></g><path class="cls-1" d="M167.49,70.61v37.87h-28.47v-39.48L106.44,1.62h26.13l22.02,49.61L175.42,1.62h25.1l-33.02,68.98Z"/></g></svg>