<?xml version="1.0" encoding="UTF-8"?><svg id="Layer_1" xmlns="http://www.w3.org/2000/svg" viewBox="0 0 565.56 171.02"><defs><style>.cls-1{fill:#eaa308;}.cls-2{fill:#fff;}.cls-3{fill:#fdfefe;}</style></defs><g><g id="Layer_1-2"><g><path class="cls-2" d="M541.31,120.22h-22.21c-4.42-13.48-8.5-26.97-12.46-40.57-3.97,13.6-8.39,27.08-12.69,40.57h-22.66c-8.16-25.16-16.2-50.42-24.36-75.69,1.13-.34,20.85-.57,24.36-.23,4.42,14.73,9.06,29.35,13.14,44.64,2.27-7.71,4.42-15.18,6.69-22.55s4.65-14.73,7.03-22.1h18.02c4.65,14.73,9.4,29.35,13.37,44.64,4.53-15.07,8.84-29.91,13.26-44.64h22.78c-8.16,25.5-16.2,50.65-24.25,75.92h0Z"/><path class="cls-2" d="M403.75,42.27c13.71,.34,24.48,4.87,32.75,14.5,5.55,6.57,8.61,14.16,9.18,22.78,.68,9.29-1.47,17.79-6.69,25.5-6.35,9.29-15.3,14.96-26.4,17-8.5,1.59-16.77,.79-24.7-2.72-13.6-6.01-21.87-16.43-23.91-31.16-1.7-12.35,1.47-23.34,9.97-32.63,6.01-6.69,13.6-10.76,22.44-12.46,2.83-.45,5.67-.57,7.37-.79h0Zm18.36,39.77c.11-2.27-.45-5.1-1.59-7.71-3.06-6.57-8.16-10.42-15.52-10.54-7.48-.11-12.92,3.51-15.98,10.42-2.38,5.44-2.38,10.99-.11,16.43,4.76,11.67,19.94,14.39,28.33,5.33,3.4-3.74,4.87-8.27,4.87-13.94h0Z"/><path class="cls-2" d="M284.77,4.31h24.48V120.22h-24.48V4.31h0Z"/><path class="cls-2" d="M351.62,120.34h-24.25c-.34-1.02-.45-113.65-.11-115.92h24.25c.34,1.02,.45,113.2,.11,115.92h0Z"/><path class="cls-2" d="M241.94,44.42h24.48V120.22h-24.36c-.34-1.02-.45-72.97-.11-75.81Z"/><path class="cls-2" d="M254.06,6.35c6.91-.11,13.94,5.33,14.05,13.94,0,7.71-6.35,13.82-14.16,13.82s-13.94-6.35-13.94-14.05c.11-7.48,6.46-13.71,14.05-13.71h0Z"/></g></g><g id="Layer_3"><g><polygon class="cls-2" points="72.88 89.97 72.88 122.83 112.54 122.94 112.54 44.19 112.54 44.19 72.88 89.97"/><polygon class="cls-2" points="1.49 44.3 1.15 122.6 41.15 122.72 41.15 89.97 1.49 44.3"/><polygon class="cls-2" points="57.01 70.82 77.75 44.19 112.54 44.19 57.92 0 1.49 43.85 1.49 44.19 36.51 44.19 57.01 70.82"/></g><path class="cls-2" d="M190.95,84.61v38.34h-32.29v-39.95L121.72,14.81h29.57l24.93,50.17,23.57-50.17h28.44l-37.28,69.79h0Z"/></g></g><g><path class="cls-1" d="M0,170.15v-29.96c1.42-.38,111.24-.5,114.08-.12v30.09H0Z"/><path class="cls-3" d="M253,170.41h-6.61v-30.4h7.91c2.56,6.81,5.13,13.67,7.89,21,2.73-7.33,5.29-14.21,7.82-21h7.78v30.4h-6.57v-17.44l-.41-.09c-2.15,5.76-3.94,11.65-6.05,17.52h-5.15c-2.04-5.8-4.1-11.65-6.16-17.49-.63,1.41-.4,2.84-.44,4.24-.04,1.49,0,2.98,0,4.47v8.79Z"/><path class="cls-3" d="M513.59,139.97h6.81v30.53c-2.18,0-4.35,.07-6.51-.06-.45-.03-.97-.74-1.26-1.26-2.79-5.03-5.53-10.09-8.28-15.14-.4-.72-.82-1.43-1.19-2.1-.17,0-.24-.01-.3,0-.05,.01-.12,.07-.12,.11,0,6.07,0,12.14,0,18.33h-6.89v-30.4h7.13c3.39,6.24,6.79,12.5,10.18,18.76l.43-.12v-18.65Z"/><path class="cls-3" d="M451.69,147.35c-2.26,.76-4.33,1.45-6.43,2.15-.14-.17-.31-.29-.38-.45-1.85-4.68-8.91-5.32-12.4-1.26-3.08,3.58-3.27,10.45-.33,14.14,2.3,2.89,6.61,3.99,10.03,2.54,2.11-.89,3.41-2.46,3.92-4.83-1.16-.46-2.32-.17-3.44-.22-1.08-.05-2.17-.01-3.36-.01v-5.18h13.95c.54,2.64,.13,5.25-.67,7.77-1.79,5.61-6.03,8.25-11.58,8.9-2.15,.25-4.41,.04-6.55-.32-2.88-.48-5.31-2.01-7.31-4.15-5.94-6.4-5.58-17.4,.75-23.42,4.91-4.67,13.49-5.43,19.11-1.73,2.19,1.44,3.67,3.4,4.68,6.06Z"/><path class="cls-3" d="M197.91,160.9c.37-.26,.62-.45,.88-.62,4.22-2.86,5.93-7.81,4.42-12.81-1.42-4.7-5.38-7.54-10.54-7.56-3.56-.01-7.13,0-10.69,0-.5,0-1,.05-1.55,.08v30.47c2.33,.05,4.55,.1,6.94-.04v-8.33h3.14c1.51,2.42,3,4.84,4.54,7.22,.29,.45,.77,1.1,1.18,1.12,2.42,.11,4.84,.05,7.59,.05-2.08-3.39-3.96-6.45-5.89-9.59Zm-1.28-9.31c-.23,2.54-2.01,4.45-4.42,4.59-1.54,.09-3.09,.02-4.85,.02v-10.36c1.94,0,3.88-.23,5.74,.06,2.37,.37,3.78,2.9,3.53,5.69Z"/><path class="cls-3" d="M359.18,160.9c.37-.27,.62-.46,.88-.63,4.21-2.86,5.91-7.79,4.42-12.82-1.38-4.64-5.41-7.53-10.56-7.54-3.56,0-7.12,0-10.69,0-.5,0-.99,.06-1.56,.1v30.43c2.23,.1,4.45,.08,6.91,0v-8.36c.5-.03,.76-.02,1.01-.06,1.5-.22,2.5,.27,3.25,1.7,1.05,2,2.34,3.88,3.57,5.78,.26,.4,.71,.92,1.09,.94,2.41,.09,4.83,.04,7.54,.04-2.07-3.39-3.95-6.46-5.87-9.59Zm-1.26-9.54c-.13,2.46-1.78,4.44-4.03,4.8-.44,.07-.9,.05-1.35,.05-1.28,0-2.55,0-3.91,0v-10.46c1.88-.03,3.8-.25,5.68,.11,2.3,.44,3.75,2.8,3.61,5.5Z"/><path class="cls-3" d="M171.21,148.97c-.92-5.36-5.15-9.01-10.52-9.05-3.69-.03-7.38,0-11.06,0-.5,0-1,.05-1.55,.08v30.41h6.93v-8.37c1.84,0,3.52,.09,5.18-.03,1.4-.1,2.86-.24,4.18-.71,4.95-1.75,7.78-6.94,6.85-12.33Zm-10.91,7.15c-1.71,.18-3.45,.04-5.26,.04v-10.42c1.88-.02,3.8-.24,5.68,.11,2.23,.42,3.69,2.71,3.62,5.31-.07,2.56-1.71,4.72-4.03,4.96Z"/><path class="cls-3" d="M406.73,139.97c3.56,10.11,7.11,20.19,10.72,30.43h-7.47c-.4-1.14-.82-2.35-1.25-3.61h-10.43c-.4,1.17-.82,2.38-1.24,3.6h-7.36c3.57-10.26,7.09-20.35,10.6-30.42h6.43Zm.29,21.11c-1.14-4.04-2.24-7.93-3.34-11.82l-.28-.03c-1.14,3.91-2.27,7.83-3.44,11.85h7.06Z"/><path class="cls-3" d="M463.99,170.38v-30.38h18.8v5.59c-3.84,.09-7.76,0-11.92,.06-.1,2.23-.04,4.39-.03,6.77h11.14v5.69h-11.04v6.62h11.9v5.65h-18.85Z"/><path class="cls-3" d="M214.88,139.99h18.78v5.61h-11.9v6.82h11.02v5.68h-11.05v6.64c1.99,.05,3.96,.01,5.93,.02,1.94,0,3.88,0,5.96,0v5.71c-6.17,.09-12.41,.02-18.75,.04v-30.52Z"/><path class="cls-3" d="M310.72,139.97h18.83v5.62h-11.9v6.81h11.02v5.73h-11v6.57h11.86v5.73h-18.8v-30.46Z"/><path class="cls-3" d="M546.28,170.43h-6.87v-24.29h-8.32v-5.92c1.29-.4,19.37-.55,23.41-.17v5.99h-8.22v24.39Z"/><path class="cls-3" d="M297.54,170.41h-6.73v-30.43c2.15-.16,4.37-.04,6.73-.06v30.49Z"/></g></svg>