<?xml version="1.0" encoding="UTF-8"?><svg id="Layer_1" xmlns="http://www.w3.org/2000/svg" viewBox="0 0 680.14 680.36"><defs><style>.cls-1{fill:#fff;}.cls-2{fill:#d5ebeb;}.cls-3{fill:#3768c3;}</style></defs><path class="cls-2" d="M680.14,340.56c0,70.16,0,140.33,0,210.49,0,69.88-56.39,127.78-126.28,128.97-37.49,.64-75,.15-112.49,.15-103.66,0-207.33,.05-310.99-.02-62.59-.04-114.92-42.49-127.71-103.76-1.66-7.94-2.52-16.19-2.53-24.29C-.02,410.79-.02,269.46,.04,128.13,.07,63.52,50.54,7.67,114.85,.9c5.29-.56,10.64-.86,15.95-.86C270.47,0,410.13,0,549.79,0c65.05,0,119.06,46.26,128.99,110.64,.96,6.23,1.29,12.61,1.29,18.92,.09,70.33,.06,140.66,.06,210.99Zm-238.54,151.12c4.09,4.19,7.94,8.34,12.04,12.23,2.11,2,3.06,3.86,2.54,6.92-.92,5.41,.85,10.21,4.76,14.12,30.51,30.53,60.98,61.1,91.58,91.54,7.16,7.12,16.99,7.07,24.16,.06,10.97-10.71,21.8-21.57,32.53-32.51,6.82-6.95,6.97-16.92,.14-23.79-30.55-30.72-61.22-61.33-91.88-91.94-4.16-4.16-9.23-5.72-15.1-4.74-1.17,.19-2.88,.18-3.61-.51-4.93-4.65-9.67-9.51-14.39-14.22,56.89-81.44,38.86-190.02-36.16-248.83-72.67-56.98-175.55-50.62-241.58,15.01-64.24,63.84-70.53,167.88-14.69,239.76,59.27,76.28,168.46,93.64,249.66,36.9Z"/><path class="cls-3" d="M441.6,491.68c-81.2,56.74-190.39,39.38-249.66-36.9-55.85-71.87-49.55-175.92,14.69-239.76,66.03-65.63,168.91-71.99,241.58-15.01,75.02,58.82,93.04,167.39,36.16,248.83,4.72,4.71,9.46,9.57,14.39,14.22,.73,.69,2.44,.7,3.61,.51,5.87-.98,10.94,.59,15.1,4.74,30.66,30.61,61.33,61.22,91.88,91.94,6.83,6.87,6.68,16.83-.14,23.79-10.73,10.95-21.57,21.8-32.53,32.51-7.17,7.01-17,7.06-24.16-.06-30.6-30.44-61.07-61.01-91.58-91.54-3.91-3.91-5.68-8.72-4.76-14.12,.52-3.06-.43-4.93-2.54-6.92-4.1-3.89-7.95-8.05-12.04-12.23Zm-253.65-148.68c-.16,81.48,66.08,147.9,147.72,148.11,81.72,.22,148.27-66.14,148.4-147.98,.13-81.44-66.16-147.89-147.77-148.14-81.71-.24-148.19,66.08-148.35,148.01Z"/><path class="cls-1" d="M187.95,343c.16-81.93,66.63-148.25,148.35-148.01,81.61,.24,147.9,66.69,147.77,148.14-.13,81.84-66.67,148.2-148.4,147.98-81.64-.22-147.88-66.63-147.72-148.11Zm148.33-58.35c-.92,.68-1.35,.92-1.7,1.26-23.34,23.32-46.7,46.61-69.92,70.05-1.41,1.43-2.27,4.04-2.29,6.11-.16,21.83-.11,43.65-.09,65.48,0,1.45,.17,2.9,.27,4.52h145.23v-5.61c0-17.83-.81-35.71,.28-53.47,.74-12.04-3-20.34-11.71-28.55-20.48-19.28-39.96-39.64-60.08-59.8Zm.37-42.05c-34.89,34.89-69.05,69.04-102.78,102.77,5.03,5.08,10.27,10.36,16.26,16.41,28.52-28.62,57.25-57.45,86.57-86.88,28.88,28.93,57.56,57.66,85.99,86.15,5.32-5.21,10.63-10.42,16.23-15.91-10.22-10.15-20.53-20.34-30.77-30.59-5.41-5.41-12.76-10.08-15.48-16.64-2.73-6.56-.81-15.07-.88-22.72-.05-5.6,0-11.21,0-16.71h-22.56v17.17c-11.46-11.63-22.04-22.36-32.58-33.04Z"/><path class="cls-3" d="M336.28,284.65c20.12,20.16,39.59,40.52,60.08,59.8,8.72,8.21,12.46,16.51,11.71,28.55-1.1,17.76-.28,35.64-.28,53.47v5.61h-145.23c-.1-1.63-.27-3.08-.27-4.52-.02-21.83-.07-43.66,.09-65.48,.02-2.07,.88-4.68,2.29-6.11,23.21-23.44,46.58-46.73,69.92-70.05,.34-.34,.78-.59,1.7-1.26Zm-17.82,101.18h33.16v-32.85h-33.16v32.85Z"/><path class="cls-3" d="M336.65,242.6c10.53,10.68,21.11,21.41,32.58,33.04v-17.17h22.56c0,5.51-.04,11.11,0,16.71,.07,7.65-1.85,16.16,.88,22.72,2.72,6.56,10.07,11.23,15.48,16.64,10.24,10.25,20.55,20.43,30.77,30.59-5.6,5.49-10.91,10.7-16.23,15.91-28.43-28.48-57.11-57.21-85.99-86.15-29.32,29.43-58.05,58.26-86.57,86.88-5.99-6.04-11.23-11.33-16.26-16.41,33.73-33.73,67.89-67.88,102.78-102.77Z"/><path class="cls-1" d="M318.46,385.83v-32.85h33.16v32.85h-33.16Z"/></svg>