<?xml version="1.0" encoding="UTF-8"?><svg id="Layer_1" xmlns="http://www.w3.org/2000/svg" viewBox="0 0 460.49 460.64"><defs><style>.cls-1{fill:#fff;}.cls-2{fill:#d5ebeb;}.cls-3{fill:#3768c3;}</style></defs><path class="cls-2" d="M287.69,330.49c4.09,4.19,7.94,8.34,12.04,12.23,2.11,2,3.06,3.86,2.54,6.92-.92,5.41,.85,10.21,4.76,14.12,30.51,30.53,60.98,61.1,91.58,91.54,7.16,7.12,16.99,7.07,24.16,.06,10.97-10.71,21.8-21.57,32.53-32.51,6.82-6.95,6.97-16.92,.14-23.79-30.55-30.72-61.22-61.33-91.88-91.94-4.16-4.16-9.23-5.72-15.1-4.74-1.17,.19-2.88,.18-3.61-.51-4.93-4.65-9.67-9.51-14.39-14.22,56.89-81.44,38.86-190.02-36.16-248.83C221.63-18.16,118.75-11.79,52.72,53.83-11.52,117.67-17.82,221.72,38.03,293.59c59.27,76.28,168.46,93.64,249.66,36.9Z"/><path class="cls-3" d="M287.69,330.49c-81.2,56.74-190.39,39.38-249.66-36.9C-17.82,221.72-11.52,117.67,52.72,53.83,118.75-11.79,221.63-18.16,294.3,38.82c75.02,58.82,93.04,167.39,36.16,248.83,4.72,4.71,9.46,9.57,14.39,14.22,.73,.69,2.44,.7,3.61,.51,5.87-.98,10.94,.59,15.1,4.74,30.66,30.61,61.33,61.22,91.88,91.94,6.83,6.87,6.68,16.83-.14,23.79-10.73,10.95-21.57,21.8-32.53,32.51-7.17,7.01-17,7.06-24.16-.06-30.6-30.44-61.07-61.01-91.58-91.54-3.91-3.91-5.68-8.72-4.76-14.12,.52-3.06-.43-4.93-2.54-6.92-4.1-3.89-7.95-8.05-12.04-12.23ZM34.04,181.81c-.16,81.48,66.08,147.9,147.72,148.11,81.72,.22,148.27-66.14,148.4-147.98,.13-81.44-66.16-147.89-147.77-148.14-81.71-.24-148.19,66.08-148.35,148.01Z"/><path class="cls-3" d="M182.37,123.46c20.12,20.16,39.59,40.52,60.08,59.8,8.72,8.21,12.46,16.51,11.71,28.55-1.1,17.76-.28,35.64-.28,53.47v5.61H108.64c-.1-1.63-.27-3.08-.27-4.52-.02-21.83-.07-43.66,.09-65.48,.02-2.07,.88-4.68,2.29-6.11,23.21-23.44,46.58-46.73,69.92-70.05,.34-.34,.78-.59,1.7-1.26Zm-17.82,101.18h33.16v-32.85h-33.16v32.85Z"/><path class="cls-3" d="M182.75,81.41c10.53,10.68,21.11,21.41,32.58,33.04v-17.17h22.56c0,5.51-.04,11.11,0,16.71,.07,7.65-1.85,16.16,.88,22.72,2.72,6.56,10.07,11.23,15.48,16.64,10.24,10.25,20.55,20.43,30.77,30.59-5.6,5.49-10.91,10.7-16.23,15.91-28.43-28.48-57.11-57.21-85.99-86.15-29.32,29.43-58.05,58.26-86.57,86.88-5.99-6.04-11.23-11.33-16.26-16.41,33.73-33.73,67.89-67.88,102.78-102.77Z"/><path class="cls-1" d="M164.55,224.63v-32.85h33.16v32.85h-33.16Z"/></svg>