<svg id="Build_Layer" data-name="Build Layer" xmlns="http://www.w3.org/2000/svg" viewBox="0 0 150 150"><defs><style>.cls-1{fill:#c88205;}.cls-2{fill:#fff;}.cls-3{fill:#001751;}</style></defs><title>icon-name-md-outline copy 125</title><circle class="cls-1" cx="75" cy="75" r="75"/><path class="cls-2" d="M127.737,80.838c-9.942-15.688-16.8-43.29-37.389-43.29-9.411,0-21.258,5.4-27.5,13.614-8.441,11.1-13.677,21.063-30.406,24.932L19.354,79.611v8.081A14.35,14.35,0,0,0,33.7,102.042s4.579.461,48.334,0S131.684,87.065,127.737,80.838Z"/><path class="cls-3" d="M117.614,109.548h0a15.5,15.5,0,0,1-15.5-15.5V41.13c5.489,2.611,12.5,8.007,15.511,15.561L132.033,88.35A15.5,15.5,0,0,1,117.614,109.548Z"/><path class="cls-3" d="M33.006,75.955c-.189.046-.372.095-.564.139L19.354,79.611v8.081a14.316,14.316,0,0,0,.232,2.5A14.506,14.506,0,0,0,33.006,75.955Z"/></svg>