<?xml version="1.0" encoding="utf-8"?>
<!-- Generator: Adobe Illustrator 26.3.1, SVG Export Plug-In . SVG Version: 6.00 Build 0)  -->
<svg version="1.1" id="Layer_1" xmlns="http://www.w3.org/2000/svg" xmlns:xlink="http://www.w3.org/1999/xlink" x="0px" y="0px"
	 viewBox="0 0 576 512" style="enable-background:new 0 0 576 512;" xml:space="preserve">
<style type="text/css">
	.st0{fill:#0346A4;}
</style>
<path class="st0" d="M381.2,150.3l143.7,21.2c11.9,1.7,21.9,10.1,25.7,21.6c3.8,11.6,0.7,24.2-7.9,32.8L438.5,328.1l24.6,146.6
	c2,12-2.9,24.2-12.9,31.3c-9.9,7.1-23,8-33.7,2.3l-128.4-68.5l-128.3,68.5c-10.8,5.7-23.9,4.8-33.8-2.3
	c-9.9-7.1-14.9-19.3-12.8-31.3l24.6-146.6L33.6,225.9c-8.6-8.6-11.7-21.2-7.9-32.8c3.8-11.5,13.7-19.9,25.7-21.6L195,150.3L259.4,18
	c5.3-11,16.5-18,28.7-18c12.3,0,23.5,7,28.8,18L381.2,150.3z"/>
</svg>
