<?xml version="1.0" encoding="utf-8"?>
<!-- Generator: Adobe Illustrator 26.3.1, SVG Export Plug-In . SVG Version: 6.00 Build 0)  -->
<svg version="1.1" id="Layer_1" xmlns="http://www.w3.org/2000/svg" xmlns:xlink="http://www.w3.org/1999/xlink" x="0px" y="0px"
	 viewBox="0 0 576 512" style="enable-background:new 0 0 576 512;" xml:space="preserve">
<style type="text/css">
	.st0{fill:#0346A4;}
</style>
<path class="st0" d="M287.9,0c9.2,0,17.6,5.2,21.6,13.5l68.6,141.3l153.3,22.7c9,1.3,16.4,7.6,19.3,16.2c2.8,8.7,0.5,18.2-5.9,24.5L433.6,328.4
	l26.3,155.5c1.5,9-2.2,18.2-9.7,23.5c-7.4,5.3-18.1,6-25.3,1.7l-137-73.2l-137.8,73.2c-7.2,4.3-17,3.6-24.5-1.7
	c-7.4-5.3-11.1-14.5-10.5-23.5l27.1-155.5L31.1,218.2c-6.5-6.3-8.8-15.8-5.9-24.5c2.8-8.6,10.3-14.9,19.3-16.2l153.2-22.7
	l68.6-141.3C270.4,5.2,278.7,0,287.9,0L287.9,0z M287.9,78.9l-52.5,108.2c-3.5,7.1-10.3,12.1-18.1,13.3L99,217.9l85.9,85.1
	c5.5,5.5,8,13.4,6.7,21.1l-20.2,119.6l105.2-56.2c7.1-3.8,15.6-3.8,22.6,0l105.2,56.2l-20.2-119.6c-1.3-7.7,1.3-15.6,6.8-21.1
	l85.9-85.1l-118.3-17.4c-7.9-1.2-14.7-6.2-18.1-13.3L287.9,78.9z"/>
<polygon class="st0" points="288,12 291,407 139.7,489 169,317.8 50,199.4 201.3,180.1 "/>
</svg>
