<?xml version="1.0" encoding="UTF-8"?><svg id="Layer_1" xmlns="http://www.w3.org/2000/svg" viewBox="0 0 269.46 457.82"><defs><style>.cls-1{fill:#f1af34;}.cls-2{fill:#f1af36;}.cls-3{fill:#fdcf37;}.cls-4{fill:#fefefe;}.cls-5{fill:#f0af37;}.cls-6{fill:#c0ecfd;}.cls-7{fill:#c1ebf9;}.cls-8{fill:#c1ecfc;}.cls-9{fill:#8ed8f8;}.cls-10{fill:#c0e8f4;}.cls-11{fill:#d7daab;}.cls-12{fill:#d8e1b0;}.cls-13{fill:#1876f9;}.cls-14{fill:#10489a;}.cls-15{fill:#3dccfb;}.cls-16{fill:#4797fb;}</style></defs><path class="cls-15" d="M61.41,246.74c.02-7.22,0-14.45,.08-21.67,.02-1.78-.72-2.4-2.38-2.27-1.4,.11-2.81,.13-4.21,.27-3.91,.39-6.41-1.77-6.47-5.72-.04-2.82,.08-5.65-.04-8.47-.09-1.94,.56-2.66,2.55-2.59,3.65,.11,7.3,0,10.95-.03l-.04-.02,1.6,.28h3.37l1.14-.22,.12-.06h.14c.72,.02,1.44,.03,2.17,.05h2c5.83,0,11.67,0,17.5,.01,.17,0,.34,0,.5,0,4.33,0,8.66,0,13-.01h2.52l1.01,.05c.81,0,1.62,0,2.43,.01,.44-.04,.88-.08,1.32-.13,.74,.02,1.48,.04,2.22,.06h1c1.33,0,2.67,0,4,0h2.5c8.73,.02,17.45,.05,26.18,.03,.69,0,1.39-.38,2.08-.58,18.66,0,37.32-.02,55.98-.03,.7,.18,1.4,.53,2.1,.53,15.38,.01,30.75-.02,46.13-.04,4.58,.04,9.16,.25,13.73,.07,2.44-.1,2.99,.77,2.85,2.98-.17,2.66-.03,5.33-.04,8-.02,4.37-2.28,6.33-6.7,5.79-.58-.07-1.15-.18-1.73-.23-1.41-.12-2.17,.37-2.16,1.96,.07,7.5,.07,14.99,.1,22.49-.03,9.56-.13,19.11-.05,28.67,.02,2.17-.52,2.88-2.77,2.81-5.56-.16-11.14-.03-16.7-.07-1.31,0-2.06,.27-1.92,1.8,.91,10.08,1.8,20.17,2.69,30.25,.06,.35,.11,.7,.17,1.05,.44,5.48,.87,10.97,1.31,16.45,.06,.35,.13,.7,.2,1.05,1.1,13.32,2.21,26.64,3.31,39.95,.06,.35,.13,.7,.19,1.05,1.1,13.32,2.21,26.64,3.31,39.95,.06,.35,.13,.7,.19,1.05,.96,11.61,1.92,23.22,2.87,34.82,.26,3.15,.46,6.31,.76,9.46,.15,1.55-.24,2.31-2,2.24-2.89-.11-5.79-.03-8.8-.03-1.43-8.1-2.83-15.94-4.2-23.79-3.43-19.58-6.85-39.16-10.27-58.74-3.76-21.55-7.52-43.09-11.28-64.64-1.72-9.83-3.47-19.66-5.11-29.5-.33-1.95-1.19-2.47-3.14-2.47-32.08,.06-64.16,.06-96.23,0-2.11,0-2.84,.68-3.19,2.74-5.08,29.36-10.24,58.7-15.38,88.04-4.96,28.28-9.92,56.56-14.88,84.83q-.62,3.52-4.3,3.52c-2.31,0-4.62,0-7.28,0,.22-3.19,.37-6.07,.62-8.94,1.26-14.5,2.58-29,3.82-43.51,1.09-12.68,2.08-25.37,3.16-38.06,1.25-14.59,2.57-29.17,3.82-43.75,.91-10.61,1.76-21.23,2.65-31.84,.29-3.48,.56-6.97,.96-10.44,.22-1.93-.33-2.66-2.4-2.6-4.75,.14-9.51-.15-14.24,.12-2.73,.16-3.29-1.06-3.28-3.28,.01-6.25,.01-12.5,0-18.75,0-3.33-.06-6.66-.09-10Z"/><path class="cls-6" d="M240.33,311.77c-.06-.35-.12-.7-.17-1.05,.06,.35,.12,.7,.17,1.05Z"/><path class="cls-6" d="M241.83,329.28c-.07-.35-.13-.7-.2-1.05,.07,.35,.13,.7,.2,1.05Z"/><path class="cls-6" d="M245.33,370.28c-.06-.35-.13-.7-.19-1.05,.06,.35,.13,.7,.19,1.05Z"/><path class="cls-6" d="M248.83,411.29c-.06-.35-.13-.7-.19-1.05,.06,.35,.13,.7,.19,1.05Z"/><path class="cls-3" d="M68.21,206.24h-.13l-.12,.05c-.38,.08-.76,.15-1.14,.23-1.12,0-2.24,0-3.37,0-.53-.09-1.06-.18-1.6-.28l.04,.02c-6.24-2.88-8.26-8.24-8.5-14.59-.37-9.8-.71-19.6-1.02-29.4-.14-4.41-.86-8.62-2.18-12.9-1.7-5.49-2.22-11.35-3.24-17.05,.25-3.44,.38-6.9,.8-10.32,.38-3.1,1.09-6.15,1.65-9.23,1.11-2.22,2.05-4.55,3.36-6.65,2.24-3.57,4.71-6.98,7.08-10.46,.1,.48,.04,1.08,.31,1.44,4.48,6.1,5.83,13.01,5.83,20.45,0,3.42,.67,6.94,1.61,10.25,.66,2.29,1.91,4.63,5.15,4.56,2.64-.05,5.31,.09,7.93,.43,3.04,.4,4.33-.92,5.41-3.68,2.62-6.67,6.7-12.1,14.31-13.59,2.1-.41,4.26-.54,6.4-.77,3.23-.34,5.64-1.78,6.83-4.95,1.79-4.77,.78-9.48-1.01-13.83-3.45-8.35-7.44-16.47-11.2-24.69,5.34-1.16,10.69-2.33,16.03-3.47,.87-.19,1.76-.3,2.94-.5-.93-4.27-1.78-8.31-2.68-12.34-2.35-10.56-4.73-21.11-7.09-31.66-.11-.49-.19-.98-.25-1.48-.36-3.27,1.36-4.59,4.38-3.25,2.44,1.07,4.9,2.15,7.17,3.52,12.77,7.72,26.08,7.44,39.69,2.84,3.94-1.33,7.81-2.87,11.7-4.35,6.79-2.59,11.05-8.08,15.38-13.48,1.46-1.82,2.82-3.74,4.46-5.37,.9-.89,2.37-1.84,3.46-1.72,.85,.1,1.94,1.72,2.2,2.84,3.65,15.72,7.18,31.47,10.74,47.21,.13,.57,.3,1.12,.45,1.68,.05,.57,.04,1.16,.14,1.72,2.05,11.47-.38,21.39-9.93,28.86-5,3.43-10.9,4.14-16.6,5.47-4.73,1.11-9.45,2.28-14.17,3.43-1.79,.44-4.83,.46-5.15,1.4-1.22,3.61-2.58,7.66-2.06,11.28,1.81,12.5,4.39,24.89,6.67,37.32,1,5.08,2.01,10.16,3.01,15.24,.38,2.44,.64,4.91,1.15,7.32,1.23,5.81-1.39,9.97-8.15,12.71l-1.02,.17-2.26-.36c-.33-.02-.67-.04-1-.06l.06,.17-.71-.35-3.15-1.72-.88-.65c-1.15-1.35-2.31-2.7-3.46-4.04-.05-.12-.11-.24-.18-.35-1.89-3.73-3.78-7.45-5.67-11.18-.04-.16-.13-.28-.26-.38,.04-.16,.02-.32-.04-.47-2.02-4.53-3.99-9.09-6.15-13.55-.19-.4-1.77-.55-2.43-.24-4.36,2.05-8.65,4.23-12.94,6.43-1.23,.63-2.34,1.47-3.51,2.21h-.03c-.14-.01-.27,.03-.38,.12l-3.5,1.86c-1.88,1.05-3.77,2.09-5.65,3.14-.41,.07-.86,.05-1.21,.22-8.88,4.51-17.74,9.04-26.61,13.56-2.29,.53-3.34,1.96-3.83,4.29-1.44,6.83-3.24,13.57-4.63,20.41-.76,3.74-2.21,6.92-5.11,9.4-.71,.38-1.41,.75-2.12,1.13Z"/><path class="cls-4" d="M252.85,206.21c-15.38,.02-30.75,.05-46.13,.04-.7,0-1.4-.35-2.1-.53,.1-.98,.28-1.96,.29-2.94,.03-8.65,.04-17.3,.05-25.95h13.74v-19.62c-2.09,0-3.96,.03-5.82,0-1.99-.04-3.97-.14-5.96-.22l-1.04-.13c-.82-.12-1.63-.24-2.45-.35l-1.07-.18-.95-.1c-3.9-3.15-7.14-6.74-8.02-11.92,.16-1.88,.32-3.75,.48-5.63,.18-1.63,.35-3.26,.53-4.9,.13-.21,.35-.4,.39-.62,1.22-7.33,2.44-14.66,3.61-21.99,.28-1.76,1.02-2.44,2.94-2.46,5.71-.03,11.41-.33,17.12-.52,2.39-.01,4.79,0,7.18-.04,3.05-.05,6.1-.18,9.14-.2,3.95-.03,7.91,.02,11.86,.03,4.71,.26,9.42,.62,14.14,.73,1.94,.05,2.93,.33,3.27,2.6,1.47,9.83,3.3,19.6,4.74,29.43,.78,5.3-.78,10.04-4.9,13.72-.47,.42-1.04,.72-1.85,1.26q4.85,1.3,4.85,6.12c0,4.08-.09,8.16,.04,12.24,.07,2.02-.47,2.85-2.62,2.72-2.9-.17-5.83,.06-8.74-.08-2.12-.1-2.72,.75-2.71,2.78,.06,8.91,0,17.82-.01,26.73Z"/><path class="cls-15" d="M246.64,107.95c-3.95-.01-7.91-.06-11.86-.03-3.05,.02-6.1,.15-9.14,.2-2.39,.04-4.79,.03-7.18,.04-.48-.67-.94-1.36-1.43-2.02-4.82-6.5-9.68-12.98-14.45-19.52-.96-1.32-1.6-2.87-2.38-4.31,9.55-7.47,11.99-17.39,9.93-28.86-.1-.56-.1-1.15-.14-1.72,1.74-.06,.81-1.37,.81-2.02-.04-4.98-.55-9.98-.24-14.93,.27-4.43,1.19-8.85,2.21-13.19,.7-2.99,2.39-5.69,5.83-6.1,3.5-.42,5.97,1.57,7.83,4.34,3.75,5.59,5.12,12.02,6.39,18.47,.54,2.76,.77,5.58,1.14,8.38,1.67,14.52,1.02,29.07,.21,43.61,7.98-12.49,13.09-17.48,20.21-22.05,.84-.36,1.66-.74,2.51-1.06,5.16-1.95,8.63,.39,9.03,5.92,.53,7.29-1.28,14.04-5.61,19.75-3.79,5-8.4,9.37-12.65,14.02-.33,.36-.67,.73-1,1.09Z"/><path class="cls-1" d="M101.4,71.28c3.76,8.22,7.75,16.34,11.2,24.69,1.79,4.34,2.81,9.06,1.01,13.83-1.19,3.17-3.6,4.61-6.83,4.95-2.14,.23-4.3,.36-6.4,.77-7.62,1.49-11.7,6.92-14.31,13.59-1.08,2.76-2.37,4.08-5.41,3.68-2.62-.35-5.29-.49-7.93-.43-3.24,.07-4.49-2.27-5.15-4.56-.95-3.31-1.62-6.82-1.61-10.25,0-7.44-1.35-14.34-5.83-20.45-.26-.36-.21-.95-.31-1.44,4.99-6.46,11.21-11.56,18.18-15.63,7.25-4.24,15.09-7.17,23.39-8.75Z"/><path class="cls-5" d="M49.4,112.77c-.56,3.07-1.27,6.13-1.65,9.23-.42,3.42-.55,6.88-.8,10.32-6.26,1.09-12.53,1.88-18.83,.3-11.74-2.94-21.3-8.93-26.1-20.46-4.32-10.39-1.51-21.16,6.83-28.97,2.18-2.04,4.5-4.11,4.2-7.29-.22-2.37-1.1-4.79-2.17-6.93-.95-1.9-2.73-3.36-3.89-5.17-2.18-3.39-1.36-7.8,1.8-10.62,2.78-2.48,7.53-2.75,10.37-.22,13.75,12.22,14.55,30.04,2.31,41.23-5.95,5.44-6.32,12.48,1.46,18.16,7.64,5.58,17.28,5.91,25.36,.92,.35-.21,.75-.34,1.12-.5Z"/><path class="cls-9" d="M254.37,68.24c-7.12,4.57-12.23,9.57-20.21,22.05,.81-14.55,1.46-29.09-.21-43.61,.53-.58,1.14-1.1,1.58-1.74,4.94-7.18,11.03-12.84,19.79-14.95,3.3-.79,5.2,.37,6.06,3.76,1.21,4.75,.44,9.44-.82,14.01-1.5,5.44-3.33,10.78-5,16.17-.44,1.42-.8,2.87-1.19,4.3Z"/><path class="cls-13" d="M204.95,176.82c-.01,8.65-.01,17.3-.05,25.95,0,.98-.19,1.96-.29,2.94-18.66,0-37.32,.02-55.99,.03-.08-1.07-.21-2.13-.22-3.2-.06-8.43-.1-16.87-.14-25.3,.06-.29,.13-.57,.19-.86,.66-.09,1.33-.17,1.99-.26,1.09,0,2.18,.01,3.27,.02l1.16,.28c.82,0,1.65,0,2.47,0,.06-.09,.08-.18,.05-.29,.66,.1,1.31,.19,1.97,.28,.42,.1,.83,.2,1.25,.29,1.08-.02,2.16-.05,3.24-.07,.34-.06,.68-.12,1.02-.17,2.64,.11,5.27,.3,7.91,.31,10.72,.04,21.43,.02,32.15,.03Z"/><path class="cls-2" d="M83.9,171.02c8.87-4.52,17.73-9.05,26.61-13.56,.35-.18,.81-.15,1.21-.22,.45,2.82,.89,5.64,1.34,8.47,.1,.51,.2,1.02,.31,1.54l.35,1.57,.28,1.94,.17,1.06c.16,1.28,.32,2.57,.48,3.85l.21,1.09,.78,5.41,.22,1.09,.7,4.07c.3,2.13,.61,4.26,.91,6.39,0,1.37,.02,2.73,.03,4.1-.39,1.29-.78,2.58-1.17,3.87-.18,.28-.35,.56-.53,.85l-2.03,2.13v-.04l-.93,.54c-.73,.36-1.46,.72-2.19,1.08-.44,.04-.88,.08-1.32,.12-.81,0-1.62,0-2.43-.01-.34-.02-.68-.05-1.01-.07-.84-.22-1.67-.44-2.51-.66-3.3-1.93-5.79-4.59-7.43-8.07-1.09-2.31-2.26-4.57-3.4-6.86-.89-1.99-1.78-3.97-2.67-5.96-2-4.57-3.99-9.13-5.99-13.7Z"/><path class="cls-6" d="M70.33,205.12l.05,1.17c-.72-.01-1.44-.03-2.17-.04,.71-.38,1.41-.75,2.12-1.13Z"/><path class="cls-7" d="M103.37,206.29c0-.23,0-.45,.01-.68,.84,.22,1.67,.44,2.51,.66-.84,0-1.68,0-2.52,.01Z"/><path class="cls-6" d="M106.91,206.34c.81,0,1.62,0,2.43,.01-.81,0-1.62,0-2.43-.01Z"/><path class="cls-6" d="M61.85,206.24c.53,.09,1.06,.19,1.6,.28-.53-.09-1.06-.19-1.6-.28Z"/><path class="cls-6" d="M66.81,206.53c.38-.08,.76-.15,1.14-.23-.38,.08-.76,.15-1.14,.23Z"/><path class="cls-2" d="M186.29,122.52c1.41,2.74,2.81,5.48,4.22,8.22,.43,.76,.86,1.51,1.29,2.27l-.04,.13,.1,.1c.67,1.8,1.34,3.6,2.01,5.41-.16,1.88-.32,3.75-.48,5.63-.66,.95-1.23,1.99-2,2.83-4.09,4.42-11.09,4.25-16.4-.38-2.06-1.8-4.07-3.67-6.1-5.5-2.28-12.43-4.86-24.82-6.67-37.32-.52-3.62,.84-7.67,2.06-11.28,.32-.94,3.36-.96,5.15-1.4,1.12,2.1,2.2,4.24,3.39,6.3,.37,.64,1.06,1.1,1.6,1.65,0,.36,0,.71,.01,1.07l1.57,3,.8,1.27c.53,1.08,1.06,2.15,1.59,3.23l1.39,2.31c.57,1.23,1.14,2.46,1.71,3.69,.27,.42,.53,.85,.8,1.27,.89,1.74,1.78,3.49,2.66,5.23,.44,.76,.89,1.52,1.33,2.28Z"/><path class="cls-14" d="M204.95,176.82c-10.72,0-21.43,.01-32.15-.03-2.64,0-5.27-.2-7.91-.31,6.76-2.74,9.38-6.9,8.15-12.71-.51-2.41-.78-4.88-1.15-7.32,5.55-.01,11.09,0,16.64-.04,4.29-.03,8.59-.14,12.88-.21l.95,.1,1.07,.18c.82,.12,1.63,.24,2.45,.35l1.04,.13c1.99,.08,3.97,.18,5.96,.22,1.87,.04,3.74,0,5.82,0v19.62h-13.74Z"/><path class="cls-11" d="M155.93,173.7c-1.15-1.35-2.31-2.7-3.46-4.04,1.15,1.35,2.31,2.7,3.46,4.04Z"/><path class="cls-14" d="M163.87,176.66c-1.08,.02-2.16,.05-3.24,.07,.04-.1,.06-.2,.05-.31l-.06-.17c.33,.02,.67,.04,1,.06l2.26,.36Z"/><path class="cls-16" d="M160.67,176.42c.01,.11,0,.21-.05,.31-.42-.1-.83-.2-1.25-.29,.19-.12,.39-.24,.58-.37,.24,.12,.48,.23,.72,.35Z"/><path class="cls-11" d="M161.61,176.3c-.33-.02-.66-.04-1-.06,.33,.02,.67,.04,1,.06Z"/><path class="cls-11" d="M120.9,152.81l-.02-.57c.11-.1,.24-.13,.38-.11-.12,.23-.24,.45-.36,.68Z"/><path class="cls-10" d="M206.91,156.96l-1.04-.13,1.04,.13Z"/><path class="cls-10" d="M203.42,156.48l-1.07-.18,1.07,.18Z"/><path class="cls-16" d="M154.89,176.43c.82,0,1.65,0,2.47,0-.82,0-1.65,0-2.47,0Z"/><path class="cls-12" d="M114.65,175.65l.21,1.09-.21-1.09Z"/><path class="cls-12" d="M115.65,182.15l.22,1.09-.22-1.09Z"/><path class="cls-10" d="M191.79,133.01c-.43-.76-.86-1.51-1.29-2.27,.43,.76,.86,1.51,1.29,2.27Z"/><path class="cls-10" d="M186.29,122.52c-.44-.76-.89-1.52-1.33-2.28,.44,.76,.89,1.52,1.33,2.28Z"/><path class="cls-10" d="M182.29,115.01c-.27-.42-.54-.85-.8-1.27,.27,.42,.54,.85,.8,1.27Z"/><path class="cls-10" d="M175.99,103.24c.27,.42,.53,.85,.8,1.27-.27-.42-.53-.85-.8-1.27Z"/><path class="cls-8" d="M138.35,144.15c.53,.35,1.07,.71,1.61,1.06-.53-.35-1.07-.71-1.61-1.06Z"/><path class="cls-8" d="M150.98,168.18c.17,.34,.34,.67,.52,1.01-.17-.34-.34-.67-.52-1.01Z"/><path class="cls-8" d="M133.32,146.64c.35,.2,.7,.4,1.05,.6l-1.05-.6Z"/></svg>