<svg width="1440" height="544" viewBox="0 0 1440 544" fill="none" xmlns="http://www.w3.org/2000/svg"><g clip-path="url(#clip0)"><rect width="1440" height="544" fill="white"/><path opacity="0.54" d="M754.252 543.742V489.066V435.514V382.038V328.486V275.01V221.458V167.982V114.43V60.9535V-0.773254H1439.53V543.742H754.252Z" fill="#3DCDFD"/><path d="M1156.87 196.107C1171.57 196.107 1183.49 181.5 1183.49 163.481C1183.49 145.463 1171.57 130.856 1156.87 130.856C1142.17 130.856 1130.25 145.463 1130.25 163.481C1130.25 181.5 1142.17 196.107 1156.87 196.107Z" stroke="#3DCDFD" stroke-miterlimit="10"/><path d="M1156.87 186.357C1167.43 186.357 1175.99 175.947 1175.99 163.106C1175.99 150.265 1167.43 139.856 1156.87 139.856C1146.31 139.856 1137.75 150.265 1137.75 163.106C1137.75 175.947 1146.31 186.357 1156.87 186.357Z" stroke="#3DCDFD" stroke-miterlimit="10"/><path d="M1253.21 195.357H1199.23V263.609H1253.21V195.357Z" stroke="#3DCDFD" stroke-miterlimit="10"/><path d="M1248.71 202.108H1204.48V257.609H1248.71V202.108Z" stroke="#3DCDFD" stroke-miterlimit="10"/><path d="M1439.53 213.358H1280.95C1280.95 213.358 1282.45 539.692 1280.95 543.367H1289.13C1290.48 539.767 1289.13 221.608 1289.13 221.608H1439.15V212.983" stroke="#3DCDFD" stroke-miterlimit="10"/><path d="M1401.29 92.2294C1334.86 92.2294 1280.95 146.156 1280.95 212.608H1521.63C1521.63 146.156 1467.72 92.2294 1401.29 92.2294Z" stroke="#3DCDFD" stroke-miterlimit="10"/><path d="M1317.32 397.113C1312.97 397.113 1309.44 393.588 1309.44 389.238C1309.44 384.888 1312.97 381.363 1317.32 381.363C1321.67 381.363 1325.19 384.888 1325.19 389.238C1325.19 393.588 1321.67 397.113 1317.32 397.113Z" stroke="#3DCDFD" stroke-miterlimit="10"/><path d="M1329.69 370.862H1304.95V422.614H1329.69V370.862Z" stroke="#3DCDFD" stroke-miterlimit="10"/><path d="M1512.7 212.834C1512.7 151.257 1462.92 101.381 1401.29 101.381C1339.73 101.381 1289.88 151.182 1289.88 212.834" stroke="#3DCDFD" stroke-miterlimit="10"/><path d="M1401.29 212.833L1497.78 157.106" stroke="#3DCDFD" stroke-miterlimit="10"/><path d="M1401.29 212.833L1457 116.305" stroke="#3DCDFD" stroke-miterlimit="10"/><path d="M1401.66 212.983V101.23" stroke="#3DCDFD" stroke-miterlimit="10"/><path d="M1401.29 212.833L1345.58 116.305" stroke="#3DCDFD" stroke-miterlimit="10"/><path d="M1401.29 212.833L1304.8 157.106" stroke="#3DCDFD" stroke-miterlimit="10"/><path d="M1198.78 373.337C1198.78 368.537 1195.26 364.562 1190.68 363.812C1194.58 356.987 1196.61 349.562 1196.61 342.062V318.736H1174.11V342.062C1174.11 349.562 1176.14 356.912 1180.04 363.812C1175.46 364.562 1171.94 368.537 1171.94 373.337C1171.94 377.688 1174.86 381.438 1178.84 382.638C1175.76 388.788 1174.19 395.388 1174.19 402.063V496.566H1196.68V402.063C1196.68 395.388 1195.11 388.863 1192.03 382.638C1195.93 381.363 1198.78 377.688 1198.78 373.337Z" fill="white"/><path d="M1146.3 319.336C1146.3 314.536 1142.77 310.561 1138.2 309.811C1142.1 302.986 1144.12 295.56 1144.12 288.06V264.734H1121.63V288.06C1121.63 295.56 1123.66 302.911 1127.55 309.811C1122.98 310.561 1119.46 314.536 1119.46 319.336C1119.46 323.686 1122.38 327.436 1126.35 328.636C1123.28 334.786 1121.71 341.387 1121.71 348.062V442.565H1144.2V348.062C1144.2 341.387 1142.62 334.861 1139.55 328.636C1143.45 327.361 1146.3 323.686 1146.3 319.336Z" fill="white"/><path d="M1085.72 254.984C1089.62 248.159 1091.64 240.734 1091.64 233.233V209.908H1069.15V233.233C1069.15 240.734 1071.17 248.084 1075.07 254.984C1070.5 255.734 1066.97 259.709 1066.97 264.509C1066.97 268.86 1069.9 272.61 1073.87 273.81C1070.8 279.96 1069.22 286.56 1069.22 293.235V387.738H1091.72V293.235C1091.72 286.56 1090.14 280.035 1087.07 273.81C1091.04 272.61 1093.97 268.935 1093.97 264.509C1093.82 259.709 1090.29 255.734 1085.72 254.984Z" fill="white"/><path d="M1041.33 210.583C1041.33 205.783 1037.81 201.808 1033.24 201.058C1037.13 194.232 1039.16 186.807 1039.16 179.307V155.981H1016.67V179.307C1016.67 186.807 1018.69 194.157 1022.59 201.058C1018.02 201.808 1014.49 205.783 1014.49 210.583C1014.49 214.933 1017.42 218.683 1021.39 219.883C1018.32 226.033 1016.74 232.633 1016.74 239.309V333.811H1039.23V239.309C1039.23 232.633 1037.66 226.108 1034.59 219.883C1038.48 218.608 1041.33 214.933 1041.33 210.583Z" fill="white"/><path d="M988.85 156.581C988.85 151.781 985.326 147.806 980.753 147.056C984.651 140.231 986.676 132.806 986.676 125.305V101.98H964.183V125.305C964.183 132.806 966.208 140.156 970.106 147.056C965.533 147.806 962.009 151.781 962.009 156.581C962.009 160.931 964.933 164.682 968.907 165.882C965.833 172.032 964.258 178.632 964.258 185.307V279.81H986.751V185.307C986.751 178.632 985.176 172.107 982.102 165.882C986.001 164.607 988.85 160.931 988.85 156.581Z" fill="white"/><path d="M928.27 92.2294C932.169 85.4042 934.193 77.979 934.193 70.4788V47.1531H911.701V70.4788C911.701 77.979 913.725 85.3292 917.624 92.2294C913.05 92.9795 909.526 96.9546 909.526 101.755C909.526 106.105 912.45 109.855 916.424 111.055C913.35 117.205 911.776 123.805 911.776 130.481V224.983H934.268V130.481C934.268 123.805 932.694 117.28 929.62 111.055C933.593 109.855 936.517 106.18 936.517 101.755C936.367 96.9546 932.844 92.9795 928.27 92.2294Z" fill="white"/><path d="M883.885 47.8281C883.885 43.028 880.361 39.0529 875.787 38.3028C879.686 31.4777 881.71 24.0524 881.71 16.5522V-6.77344H859.218V16.5522C859.218 24.0524 861.242 31.4027 865.141 38.3028C860.567 39.0529 857.043 43.028 857.043 47.8281C857.043 52.1783 859.968 55.9284 863.941 57.1284C860.867 63.2786 859.293 69.8788 859.293 76.5539V171.057H881.785V76.5539C881.785 69.8788 880.211 63.3536 877.137 57.1284C881.036 55.8534 883.885 52.1783 883.885 47.8281Z" fill="white"/><path d="M823.23 -15.8487C827.128 -22.6739 829.228 -30.0241 829.228 -37.4493V-60.775H806.735V-37.4493C806.735 -30.0241 808.759 -22.6739 812.733 -15.8487C808.16 -15.5487 804.486 -11.7986 804.486 -7.14842V-5.19836C804.486 -1.07324 807.41 2.37685 811.383 3.27688C808.309 9.42706 806.735 15.8772 806.735 22.4774V116.98H829.228V22.4774C829.228 15.8772 827.653 9.42706 824.579 3.27688C828.553 2.37685 831.477 -1.07324 831.477 -5.19836V-7.14842C831.477 -11.7986 827.878 -15.5487 823.23 -15.8487Z" fill="white"/><path d="M1248.64 360.287L1248.71 360.212L1247.14 358.637C1247.14 358.637 1247.14 358.637 1247.07 358.562L827.728 -61L810.409 -43.6745L1214.6 360.662C1211.83 364.337 1210.1 368.912 1210.1 373.863C1210.1 385.863 1219.85 395.538 1231.77 395.538C1243.69 395.538 1253.44 385.863 1253.44 373.863C1253.44 368.687 1251.64 363.962 1248.64 360.287Z" fill="white"/><path d="M1174.11 491.241V437.989H1121.63V383.988H1069.15V329.986H1016.67V275.985H964.183V221.983H911.701V168.732H859.218V114.73H806.735V60.7285H754.252V-0.773254H0V61.1785V72.8038V543.742H1226.6V491.241H1174.11Z" fill="#C1EDFE"/></g><defs><clipPath id="clip0"><rect width="1440" height="544" fill="white"/></clipPath></defs></svg>